<?xml version="1.0" encoding="utf-8"?>
<!-- Generator: Adobe Illustrator 21.0.2, SVG Export Plug-In . SVG Version: 6.00 Build 0)  -->
<svg version="1.1" id="Layer_1" xmlns="http://www.w3.org/2000/svg" xmlns:xlink="http://www.w3.org/1999/xlink" x="0px" y="0px"
	 viewBox="0 0 96.9 61.9" style="enable-background:new 0 0 96.9 61.9;" xml:space="preserve">
<style type="text/css">
	.st0{fill:#FFFFFF;}
	.st1{fill:#FFFFFF;stroke:#FFFFFF;stroke-width:0.7398;stroke-miterlimit:10;}
	.st2{font-family:'Arial-BoldMT';}
	.st3{font-size:5.343px;}
</style>
<g>
	<polygon class="st0" points="8.3,9.9 16,6.9 21.9,10.3 24.9,8.4 32.1,15.9 32.1,12.5 40.1,18.7 41.6,15.6 39.5,14.3 46.6,10.2 
		57.4,18.5 56.6,15.2 64,18.9 68.1,18.9 74.4,26.4 85.1,26.4 69.9,18.2 64.5,18.2 46.7,9.2 37.9,13.9 25,7.2 21.9,9.3 16,5.9 8.3,9 
			"/>
	<path class="st0" d="M8.3,26.9h25.3l-1.9-2.4c0,0,2.2,2.6,58.8,1.2l-3.3,3.6c0,0-8-2.2-48.9-2.6l2.6,1.8c0,0-27.6,0.5-32.6,4V26.9z
		"/>
	<g>
		<g>
			<path class="st1" d="M14.3,54.5L8.8,35.2h2.8l3.1,12.6c0.3,1.3,0.6,2.6,0.9,3.9c0.5-2.1,0.8-3.3,0.9-3.6l3.9-13h3.3l2.9,9.8
				c0.7,2.4,1.3,4.7,1.6,6.8c0.3-1.2,0.6-2.6,1-4.2l3.2-12.4h2.7l-5.6,19.3h-2.6l-4.3-14.7c-0.4-1.2-0.6-2-0.6-2.3
				c-0.2,0.9-0.4,1.6-0.6,2.3L17,54.5H14.3z"/>
			<path class="st1" d="M37.4,54.5V35.2h14.8v2.3H40.1v5.9h11.3v2.3H40.1v6.6h12.5v2.3H37.4z"/>
			<path class="st1" d="M54.3,48.3l2.5-0.2c0.1,1,0.4,1.8,0.8,2.4c0.4,0.6,1.1,1.1,2.1,1.5c0.9,0.4,2,0.6,3.1,0.6
				c1,0,1.9-0.1,2.7-0.4c0.8-0.3,1.4-0.7,1.8-1.2c0.4-0.5,0.6-1.1,0.6-1.7c0-0.6-0.2-1.1-0.6-1.6c-0.4-0.5-1-0.8-1.8-1.1
				c-0.5-0.2-1.8-0.5-3.6-0.9c-1.9-0.4-3.2-0.8-3.9-1.2c-1-0.5-1.7-1.1-2.2-1.8c-0.5-0.7-0.7-1.5-0.7-2.4c0-1,0.3-1.9,0.9-2.7
				c0.6-0.8,1.4-1.5,2.6-1.9c1.1-0.4,2.4-0.7,3.7-0.7c1.5,0,2.8,0.2,4,0.7c1.2,0.5,2,1.1,2.7,2c0.6,0.9,1,1.9,1,3l-2.6,0.2
				c-0.1-1.2-0.6-2.1-1.4-2.8c-0.8-0.6-2-0.9-3.6-0.9c-1.6,0-2.8,0.3-3.6,0.8c-0.7,0.6-1.1,1.2-1.1,2c0,0.7,0.3,1.3,0.8,1.7
				c0.5,0.4,1.9,0.9,4.1,1.4c2.2,0.5,3.7,0.9,4.5,1.2c1.2,0.5,2.1,1.2,2.6,2c0.6,0.8,0.8,1.7,0.8,2.7c0,1-0.3,2-0.9,2.9
				c-0.6,0.9-1.5,1.6-2.7,2.1c-1.2,0.5-2.5,0.8-3.9,0.8c-1.8,0-3.4-0.3-4.6-0.8c-1.2-0.5-2.2-1.3-2.9-2.3
				C54.7,50.8,54.4,49.6,54.3,48.3z"/>
			<path class="st1" d="M78.3,54.5v-17h-6.7v-2.3h16.2v2.3H81v17H78.3z"/>
		</g>
	</g>
	<text transform="matrix(0 1 -1 0 82.7961 43.362)" class="st0 st2 st3">ULC</text>
</g>
</svg>
